<?xml version="1.0" encoding="UTF-8"?>
<svg width="360px" height="573px" viewBox="0 0 360 573" version="1.1" xmlns="http://www.w3.org/2000/svg" xmlns:xlink="http://www.w3.org/1999/xlink">
    <!-- Generator: Sketch 53.2 (72643) - https://sketchapp.com -->
    <title>资源 2</title>
    <desc>Created with Sketch.</desc>
    <defs>
        <linearGradient x1="99.9858577%" y1="50%" x2="0%" y2="50%" id="linearGradient-1">
            <stop stop-color="#FFBA57" offset="0%"></stop>
            <stop stop-color="#FF653F" offset="46%"></stop>
            <stop stop-color="#FF3E17" offset="100%"></stop>
        </linearGradient>
        <linearGradient x1="99.9858577%" y1="50%" x2="0%" y2="50%" id="linearGradient-2">
            <stop stop-color="#FF3E17" offset="0%"></stop>
            <stop stop-color="#FF653F" offset="54%"></stop>
            <stop stop-color="#FFBA57" offset="100%"></stop>
        </linearGradient>
    </defs>
    <g id="Page-1" stroke="none" stroke-width="1" fill="none" fill-rule="evenodd">
        <g id="资源-2" fill-rule="nonzero">
            <path d="M0,179.326269 C0.112228294,80.3336063 80.3731359,0.112173097 179.41451,0 L360,0 L360,231.129374 C359.887964,331.467752 278.580239,412.80376 178.192618,413 L0,413 L0,179.326269 Z M179.41451,70.2751355 C119.180864,70.3312437 70.3658515,119.122247 70.3097157,179.326269 L70.3097157,342.724864 L178.192618,342.724864 C239.714562,342.445663 289.495165,292.621385 289.690284,231.129374 L289.690284,70.2751355 L179.41451,70.2751355 Z" id="形状" fill="#FFFFFF"></path>
            <path d="M0,339.326269 C0.112228294,240.333606 80.3731359,160.112173 179.41451,160 L360,160 L360,391.129374 C359.887964,491.467752 278.580239,572.80376 178.192618,573 L0,573 L0,339.326269 Z M179.41451,230.275136 C119.180864,230.331244 70.3658515,279.122247 70.3097157,339.326269 L70.3097157,502.724864 L178.192618,502.724864 C239.714562,502.445663 289.495165,452.621385 289.690284,391.129374 L289.690284,230.275136 L179.41451,230.275136 Z" id="形状" fill="#FFFFFF"></path>
            <g id="分组" opacity="0.72" fill="url(#linearGradient-1)">
                <path d="M0,179.208293 C0.112080369,80.2807558 80.2671981,0.1120993 179.178028,-3.91686683e-15 L359.525493,-3.91686683e-15 L359.525493,230.977317 C359.413605,331.249683 278.21305,412.532182 177.957746,412.728293 L0,412.728293 L0,179.208293 Z M179.178028,70.2289024 C119.023774,70.2849737 70.273104,119.043878 70.2170423,179.208293 L70.2170423,342.49939 L177.957746,342.49939 C239.3986,342.220373 289.113588,292.428873 289.308451,230.977317 L289.308451,70.2289024 L179.178028,70.2289024 Z" id="形状"></path>
            </g>
            <g id="分组" opacity="0.72" transform="translate(0.000000, 160.000000)" fill="url(#linearGradient-2)">
                <path d="M0,179.242439 C0.112080369,80.3149022 80.2671981,0.146245641 179.178028,0.0341463415 L359.525493,0.0341463415 L359.525493,231.011463 C359.413605,331.28383 278.21305,412.566328 177.957746,412.762439 L0,412.762439 L0,179.242439 Z M179.178028,70.2630488 C119.023774,70.31912 70.273104,119.078025 70.2170423,179.242439 L70.2170423,342.533537 L177.957746,342.533537 C239.3986,342.254519 289.113588,292.463019 289.308451,231.011463 L289.308451,70.2630488 L179.178028,70.2630488 Z" id="形状"></path>
            </g>
        </g>
    </g>
</svg>